{"title":"Spectre {2015} HQ TS XVID AC3-MURD3R","uid":12929036,"size":2096175283,"categoryP":"video","categoryS":"movies","magnet":"?xt=urn:btih:16ac3eda3408ef7d8fb35608ccbdcad993e85de0&amp;dn=Spectre+%7B2015%7D+HQ+TS+XVID+AC3-MURD3R&amp;tr=udp%3A%2F%2Ftracker.leechers-paradise.org%3A6969&amp;tr=udp%3A%2F%2Fzer0day.ch%3A1337&amp;tr=udp%3A%2F%2Fopen.demonii.com%3A1337&amp;tr=udp%3A%2F%2Ftracker.coppersurfer.tk%3A6969&amp;tr=udp%3A%2F%2Fexodus.desync.com%3A6969","seeders":0,"leechers":3,"uploader":"SaM","files":19,"time":1449502198,"description":"http://www.imdb.com/title/tt2379713/\r\n\r\nSpectre {2015} HQ TS XVID AC3-MURD3R\r\n\r\nH.C...SUBZ...CHINESE .....ENG ..:) WHEN NEEDED...:)\r\n\r\nSource : Mp4Ba...TY:)\r\nFormat : AVI\r\nFormat/Info : Audio Video Interleave\r\nFile size : 1.95 GiB\r\nDuration : 2h 27mn\r\nOverall bit rate : 1 887 Kbps\r\n\r\nVideo\r\nID : 0\r\nFormat : MPEG-4 Visual\r\nFormat profile : Advanced   \r\nFormat settings, BVOP : 2\r\nFormat settings, QPel : No\r\nFormat settings, GMC : No warppoints\r\nFormat settings, Matrix : Default (H.263)\r\nCodec ID : XVID\r\nCodec ID/Hint : XviD\r\nDuration : 2h 27mn\r\nBit rate : 1 748 Kbps\r\nWidth : 640 pixels\r\nHeight : 348 pixels\r\nDisplay aspect ratio : 1.85:1\r\nFrame rate : 23.976 fps\r\nColor space : YUV\r\nChroma subsampling : 4:2:0\r\nBit depth : 8 bits\r\nScan type : Progressive\r\nCompression mode : Lossy\r\nBits/(Pixel*Frame) : 0.327\r\nStream size : 1.81 GiB (93%)\r\nWriting library : XviD 67\r\n\r\nAudio\r\nID : 1\r\nFormat : AC-3\r\nFormat/Info : Audio Coding 3\r\nMode extension : CM (complete main)\r\nFormat settings, Endianness : Big\r\nCodec ID : 2000\r\nDuration : 2h 27mn\r\nBit rate mode : Constant\r\nBit rate : 128 Kbps\r\nChannel(s) : 2 channels\r\nChannel positions : Front: L R\r\nSampling rate : 44.1 KHz\r\nCompression mode : Lossy\r\nStream size : 135 MiB (7%)\r\nAlignment : Aligned on interleaves\r\nInterleave, duration : 35 ms (0.84 video frame)\r\n \nhttp://extraimago.com/image/G7T \nhttp://extraimago.com/image/G7N \nhttp://extraimago.com/image/G72 \nhttp://extraimago.com/image/G7w \nhttp://extraimago.com/image/G7a \nhttp://extraimago.com/image/G78 \nhttp://extraimago.com/image/Gsf \nhttp://extraimago.com/image/GsW \nhttp://extraimago.com/image/GsA \nhttp://extraimago.com/image/Gsv \nhttp://extraimago.com/image/Gsu \nhttp://extraimago.com/image/GsV \nhttp://extraimago.com/image/Gs6 \nhttp://extraimago.com/image/Gsx \nhttp://extraimago.com/image/Gst \nhttp://extraimago.com/image/Gso","torrent":{"xt":"urn:btih:16ac3eda3408ef7d8fb35608ccbdcad993e85de0","amp;dn":"Spectre+%7B2015%7D+HQ+TS+XVID+AC3-MURD3R","amp;tr":["udp%3A%2F%2Ftracker.leechers-paradise.org%3A6969","udp%3A%2F%2Fzer0day.ch%3A1337","udp%3A%2F%2Fopen.demonii.com%3A1337","udp%3A%2F%2Ftracker.coppersurfer.tk%3A6969","udp%3A%2F%2Fexodus.desync.com%3A6969"],"infoHash":"16ac3eda3408ef7d8fb35608ccbdcad993e85de0","infoHashBuffer":{"type":"Buffer","data":[22,172,62,218,52,8,239,125,143,179,86,8,204,189,202,217,147,232,93,224]},"announce":[],"urlList":[]}}